<?xml version="1.0" encoding="UTF-8" standalone="no"?>
<!DOCTYPE svg PUBLIC "-//W3C//DTD SVG 1.1//EN"
 "http://www.w3.org/Graphics/SVG/1.1/DTD/svg11.dtd">
<!-- Generated by graphviz version 2.40.1 (20161225.0304)
 -->
<!-- Title: UmlClassDiagram Pages: 1 -->
<svg width="3761pt" height="1493pt"
 viewBox="0.00 0.00 3760.75 1492.80" xmlns="http://www.w3.org/2000/svg" xmlns:xlink="http://www.w3.org/1999/xlink">
<g id="graph0" class="graph" transform="scale(1 1) rotate(0) translate(4 1488.8)">
<title>UmlClassDiagram</title>
<polygon fill="#ffffff" stroke="transparent" points="-4,4 -4,-1488.8 3756.7544,-1488.8 3756.7544,4 -4,4"/>
<!-- 0 -->
<g id="node1" class="node">
<title>0</title>
<polygon fill="#f2f2f2" stroke="#000000" points="375.6241,-1267.1 375.6241,-1391.9 593.7687,-1391.9 593.7687,-1267.1 375.6241,-1267.1"/>
<text text-anchor="middle" x="484.6964" y="-1375.3" font-family="Times,serif" font-size="14.00" fill="#000000">&lt;&lt;Abstract&gt;&gt;</text>
<text text-anchor="middle" x="484.6964" y="-1358.5" font-family="Times,serif" font-size="14.00" fill="#000000">Context</text>
<polyline fill="none" stroke="#000000" points="375.6241,-1350.3 593.7687,-1350.3 "/>
<text text-anchor="middle" x="484.6964" y="-1333.7" font-family="Times,serif" font-size="14.00" fill="#000000"> </text>
<polyline fill="none" stroke="#000000" points="375.6241,-1325.5 593.7687,-1325.5 "/>
<text text-anchor="start" x="383.6241" y="-1308.9" font-family="Times,serif" font-size="14.00" fill="#000000">Internal:</text>
<text text-anchor="start" x="383.6241" y="-1292.1" font-family="Times,serif" font-size="14.00" fill="#000000"> &#160;&#160;&#160;_msgSender(): (payable: address)</text>
<text text-anchor="start" x="383.6241" y="-1275.3" font-family="Times,serif" font-size="14.00" fill="#000000"> &#160;&#160;&#160;_msgData(): bytes</text>
</g>
<!-- 1 -->
<g id="node2" class="node">
<title>1</title>
<polygon fill="#f2f2f2" stroke="#000000" points="1013.3965,-1208.3 1013.3965,-1450.7 1451.9963,-1450.7 1451.9963,-1208.3 1013.3965,-1208.3"/>
<text text-anchor="middle" x="1232.6964" y="-1434.1" font-family="Times,serif" font-size="14.00" fill="#000000">&lt;&lt;Interface&gt;&gt;</text>
<text text-anchor="middle" x="1232.6964" y="-1417.3" font-family="Times,serif" font-size="14.00" fill="#000000">IERC20</text>
<polyline fill="none" stroke="#000000" points="1013.3965,-1409.1 1451.9963,-1409.1 "/>
<text text-anchor="middle" x="1232.6964" y="-1392.5" font-family="Times,serif" font-size="14.00" fill="#000000"> </text>
<polyline fill="none" stroke="#000000" points="1013.3965,-1384.3 1451.9963,-1384.3 "/>
<text text-anchor="start" x="1021.3965" y="-1367.7" font-family="Times,serif" font-size="14.00" fill="#000000">External:</text>
<text text-anchor="start" x="1021.3965" y="-1350.9" font-family="Times,serif" font-size="14.00" fill="#000000"> &#160;&#160;&#160;&#160;totalSupply(): uint256</text>
<text text-anchor="start" x="1021.3965" y="-1334.1" font-family="Times,serif" font-size="14.00" fill="#000000"> &#160;&#160;&#160;&#160;balanceOf(account: address): uint256</text>
<text text-anchor="start" x="1021.3965" y="-1317.3" font-family="Times,serif" font-size="14.00" fill="#000000"> &#160;&#160;&#160;&#160;transfer(recipient: address, amount: uint256): bool</text>
<text text-anchor="start" x="1021.3965" y="-1300.5" font-family="Times,serif" font-size="14.00" fill="#000000"> &#160;&#160;&#160;&#160;allowance(owner: address, spender: address): uint256</text>
<text text-anchor="start" x="1021.3965" y="-1283.7" font-family="Times,serif" font-size="14.00" fill="#000000"> &#160;&#160;&#160;&#160;approve(spender: address, amount: uint256): bool</text>
<text text-anchor="start" x="1021.3965" y="-1266.9" font-family="Times,serif" font-size="14.00" fill="#000000"> &#160;&#160;&#160;&#160;transferFrom(sender: address, recipient: address, amount: uint256): bool</text>
<text text-anchor="start" x="1021.3965" y="-1250.1" font-family="Times,serif" font-size="14.00" fill="#000000">Public:</text>
<text text-anchor="start" x="1021.3965" y="-1233.3" font-family="Times,serif" font-size="14.00" fill="#000000"> &#160;&#160;&#160;&lt;&lt;event&gt;&gt; Transfer(from: address, to: address, value: uint256)</text>
<text text-anchor="start" x="1021.3965" y="-1216.5" font-family="Times,serif" font-size="14.00" fill="#000000"> &#160;&#160;&#160;&lt;&lt;event&gt;&gt; Approval(owner: address, spender: address, value: uint256)</text>
</g>
<!-- 2 -->
<g id="node3" class="node">
<title>2</title>
<polygon fill="#f2f2f2" stroke="#000000" points="0,-1174.7 0,-1484.3 357.3928,-1484.3 357.3928,-1174.7 0,-1174.7"/>
<text text-anchor="middle" x="178.6964" y="-1467.7" font-family="Times,serif" font-size="14.00" fill="#000000">&lt;&lt;Library&gt;&gt;</text>
<text text-anchor="middle" x="178.6964" y="-1450.9" font-family="Times,serif" font-size="14.00" fill="#000000">SafeMath</text>
<polyline fill="none" stroke="#000000" points="0,-1442.7 357.3928,-1442.7 "/>
<text text-anchor="middle" x="178.6964" y="-1426.1" font-family="Times,serif" font-size="14.00" fill="#000000"> </text>
<polyline fill="none" stroke="#000000" points="0,-1417.9 357.3928,-1417.9 "/>
<text text-anchor="start" x="8" y="-1401.3" font-family="Times,serif" font-size="14.00" fill="#000000">Internal:</text>
<text text-anchor="start" x="8" y="-1384.5" font-family="Times,serif" font-size="14.00" fill="#000000"> &#160;&#160;&#160;tryAdd(a: uint256, b: uint256): (bool, uint256)</text>
<text text-anchor="start" x="8" y="-1367.7" font-family="Times,serif" font-size="14.00" fill="#000000"> &#160;&#160;&#160;trySub(a: uint256, b: uint256): (bool, uint256)</text>
<text text-anchor="start" x="8" y="-1350.9" font-family="Times,serif" font-size="14.00" fill="#000000"> &#160;&#160;&#160;tryMul(a: uint256, b: uint256): (bool, uint256)</text>
<text text-anchor="start" x="8" y="-1334.1" font-family="Times,serif" font-size="14.00" fill="#000000"> &#160;&#160;&#160;tryDiv(a: uint256, b: uint256): (bool, uint256)</text>
<text text-anchor="start" x="8" y="-1317.3" font-family="Times,serif" font-size="14.00" fill="#000000"> &#160;&#160;&#160;tryMod(a: uint256, b: uint256): (bool, uint256)</text>
<text text-anchor="start" x="8" y="-1300.5" font-family="Times,serif" font-size="14.00" fill="#000000"> &#160;&#160;&#160;add(a: uint256, b: uint256): uint256</text>
<text text-anchor="start" x="8" y="-1283.7" font-family="Times,serif" font-size="14.00" fill="#000000"> &#160;&#160;&#160;sub(a: uint256, b: uint256): uint256</text>
<text text-anchor="start" x="8" y="-1266.9" font-family="Times,serif" font-size="14.00" fill="#000000"> &#160;&#160;&#160;mul(a: uint256, b: uint256): uint256</text>
<text text-anchor="start" x="8" y="-1250.1" font-family="Times,serif" font-size="14.00" fill="#000000"> &#160;&#160;&#160;div(a: uint256, b: uint256): uint256</text>
<text text-anchor="start" x="8" y="-1233.3" font-family="Times,serif" font-size="14.00" fill="#000000"> &#160;&#160;&#160;mod(a: uint256, b: uint256): uint256</text>
<text text-anchor="start" x="8" y="-1216.5" font-family="Times,serif" font-size="14.00" fill="#000000"> &#160;&#160;&#160;sub(a: uint256, b: uint256, errorMessage: string): uint256</text>
<text text-anchor="start" x="8" y="-1199.7" font-family="Times,serif" font-size="14.00" fill="#000000"> &#160;&#160;&#160;div(a: uint256, b: uint256, errorMessage: string): uint256</text>
<text text-anchor="start" x="8" y="-1182.9" font-family="Times,serif" font-size="14.00" fill="#000000"> &#160;&#160;&#160;mod(a: uint256, b: uint256, errorMessage: string): uint256</text>
</g>
<!-- 3 -->
<g id="node4" class="node">
<title>3</title>
<polygon fill="#f2f2f2" stroke="#000000" points="267.1465,-643.3 267.1465,-1137.7 702.2463,-1137.7 702.2463,-643.3 267.1465,-643.3"/>
<text text-anchor="middle" x="484.6964" y="-1121.1" font-family="Times,serif" font-size="14.00" fill="#000000">ERC20</text>
<polyline fill="none" stroke="#000000" points="267.1465,-1112.9 702.2463,-1112.9 "/>
<text text-anchor="start" x="275.1465" y="-1096.3" font-family="Times,serif" font-size="14.00" fill="#000000">Private:</text>
<text text-anchor="start" x="275.1465" y="-1079.5" font-family="Times,serif" font-size="14.00" fill="#000000"> &#160;&#160;_balances: mapping(address=&gt;uint256)</text>
<text text-anchor="start" x="275.1465" y="-1062.7" font-family="Times,serif" font-size="14.00" fill="#000000"> &#160;&#160;_allowances: mapping(address=&gt;mapping(address=&gt;uint256))</text>
<text text-anchor="start" x="275.1465" y="-1045.9" font-family="Times,serif" font-size="14.00" fill="#000000"> &#160;&#160;_totalSupply: uint256</text>
<text text-anchor="start" x="275.1465" y="-1029.1" font-family="Times,serif" font-size="14.00" fill="#000000"> &#160;&#160;_name: string</text>
<text text-anchor="start" x="275.1465" y="-1012.3" font-family="Times,serif" font-size="14.00" fill="#000000"> &#160;&#160;_symbol: string</text>
<text text-anchor="start" x="275.1465" y="-995.5" font-family="Times,serif" font-size="14.00" fill="#000000"> &#160;&#160;_decimals: uint8</text>
<polyline fill="none" stroke="#000000" points="267.1465,-987.3 702.2463,-987.3 "/>
<text text-anchor="start" x="275.1465" y="-970.7" font-family="Times,serif" font-size="14.00" fill="#000000">Internal:</text>
<text text-anchor="start" x="275.1465" y="-953.9" font-family="Times,serif" font-size="14.00" fill="#000000"> &#160;&#160;&#160;_transfer(sender: address, recipient: address, amount: uint256)</text>
<text text-anchor="start" x="275.1465" y="-937.1" font-family="Times,serif" font-size="14.00" fill="#000000"> &#160;&#160;&#160;_mint(account: address, amount: uint256)</text>
<text text-anchor="start" x="275.1465" y="-920.3" font-family="Times,serif" font-size="14.00" fill="#000000"> &#160;&#160;&#160;_burn(account: address, amount: uint256)</text>
<text text-anchor="start" x="275.1465" y="-903.5" font-family="Times,serif" font-size="14.00" fill="#000000"> &#160;&#160;&#160;_approve(owner: address, spender: address, amount: uint256)</text>
<text text-anchor="start" x="275.1465" y="-886.7" font-family="Times,serif" font-size="14.00" fill="#000000"> &#160;&#160;&#160;_setupDecimals(decimals_: uint8)</text>
<text text-anchor="start" x="275.1465" y="-869.9" font-family="Times,serif" font-size="14.00" fill="#000000"> &#160;&#160;&#160;_beforeTokenTransfer(from: address, to: address, amount: uint256)</text>
<text text-anchor="start" x="275.1465" y="-853.1" font-family="Times,serif" font-size="14.00" fill="#000000">Public:</text>
<text text-anchor="start" x="275.1465" y="-836.3" font-family="Times,serif" font-size="14.00" fill="#000000"> &#160;&#160;&#160;constructor(name_: string, symbol_: string)</text>
<text text-anchor="start" x="275.1465" y="-819.5" font-family="Times,serif" font-size="14.00" fill="#000000"> &#160;&#160;&#160;name(): string</text>
<text text-anchor="start" x="275.1465" y="-802.7" font-family="Times,serif" font-size="14.00" fill="#000000"> &#160;&#160;&#160;symbol(): string</text>
<text text-anchor="start" x="275.1465" y="-785.9" font-family="Times,serif" font-size="14.00" fill="#000000"> &#160;&#160;&#160;decimals(): uint8</text>
<text text-anchor="start" x="275.1465" y="-769.1" font-family="Times,serif" font-size="14.00" fill="#000000"> &#160;&#160;&#160;totalSupply(): uint256</text>
<text text-anchor="start" x="275.1465" y="-752.3" font-family="Times,serif" font-size="14.00" fill="#000000"> &#160;&#160;&#160;balanceOf(account: address): uint256</text>
<text text-anchor="start" x="275.1465" y="-735.5" font-family="Times,serif" font-size="14.00" fill="#000000"> &#160;&#160;&#160;transfer(recipient: address, amount: uint256): bool</text>
<text text-anchor="start" x="275.1465" y="-718.7" font-family="Times,serif" font-size="14.00" fill="#000000"> &#160;&#160;&#160;allowance(owner: address, spender: address): uint256</text>
<text text-anchor="start" x="275.1465" y="-701.9" font-family="Times,serif" font-size="14.00" fill="#000000"> &#160;&#160;&#160;approve(spender: address, amount: uint256): bool</text>
<text text-anchor="start" x="275.1465" y="-685.1" font-family="Times,serif" font-size="14.00" fill="#000000"> &#160;&#160;&#160;transferFrom(sender: address, recipient: address, amount: uint256): bool</text>
<text text-anchor="start" x="275.1465" y="-668.3" font-family="Times,serif" font-size="14.00" fill="#000000"> &#160;&#160;&#160;increaseAllowance(spender: address, addedValue: uint256): bool</text>
<text text-anchor="start" x="275.1465" y="-651.5" font-family="Times,serif" font-size="14.00" fill="#000000"> &#160;&#160;&#160;decreaseAllowance(spender: address, subtractedValue: uint256): bool</text>
</g>
<!-- 3&#45;&gt;0 -->
<g id="edge1" class="edge">
<title>3&#45;&gt;0</title>
<path fill="none" stroke="#000000" d="M484.6964,-1137.9061C484.6964,-1173.0849 484.6964,-1207.2917 484.6964,-1236.8326"/>
<polygon fill="none" stroke="#000000" points="474.1965,-1236.8817 484.6964,-1266.8817 495.1965,-1236.8817 474.1965,-1236.8817"/>
</g>
<!-- 3&#45;&gt;1 -->
<g id="edge2" class="edge">
<title>3&#45;&gt;1</title>
<path fill="none" stroke="#000000" stroke-dasharray="5,2" d="M702.2898,-1131.7141C705.4109,-1133.9259 708.5468,-1136.0892 711.6964,-1138.2 793.9424,-1193.3203 894.1002,-1235.0117 984.5409,-1265.1742"/>
<polygon fill="none" stroke="#000000" points="981.436,-1275.2055 1013.2118,-1274.4649 987.9096,-1255.2282 981.436,-1275.2055"/>
</g>
<!-- 3&#45;&gt;2 -->
<g id="edge3" class="edge">
<title>3&#45;&gt;2</title>
<path fill="none" stroke="#000000" stroke-dasharray="5,2" d="M312.2448,-1137.9061C305.6458,-1147.3732 299.096,-1156.7699 292.6453,-1166.0243"/>
<polygon fill="#000000" stroke="#000000" points="289.5977,-1164.2759 286.7506,-1174.481 295.3403,-1168.2787 289.5977,-1164.2759"/>
</g>
<!-- 4 -->
<g id="node5" class="node">
<title>4</title>
<polygon fill="#f2f2f2" stroke="#000000" points="191.0028,-380.7 191.0028,-505.5 478.39,-505.5 478.39,-380.7 191.0028,-380.7"/>
<text text-anchor="middle" x="334.6964" y="-488.9" font-family="Times,serif" font-size="14.00" fill="#000000">&lt;&lt;Abstract&gt;&gt;</text>
<text text-anchor="middle" x="334.6964" y="-472.1" font-family="Times,serif" font-size="14.00" fill="#000000">ERC20Burnable</text>
<polyline fill="none" stroke="#000000" points="191.0028,-463.9 478.39,-463.9 "/>
<text text-anchor="middle" x="334.6964" y="-447.3" font-family="Times,serif" font-size="14.00" fill="#000000"> </text>
<polyline fill="none" stroke="#000000" points="191.0028,-439.1 478.39,-439.1 "/>
<text text-anchor="start" x="199.0028" y="-422.5" font-family="Times,serif" font-size="14.00" fill="#000000">Public:</text>
<text text-anchor="start" x="199.0028" y="-405.7" font-family="Times,serif" font-size="14.00" fill="#000000"> &#160;&#160;&#160;burn(amount: uint256)</text>
<text text-anchor="start" x="199.0028" y="-388.9" font-family="Times,serif" font-size="14.00" fill="#000000"> &#160;&#160;&#160;burnFrom(account: address, amount: uint256)</text>
</g>
<!-- 4&#45;&gt;0 -->
<g id="edge4" class="edge">
<title>4&#45;&gt;0</title>
<path fill="none" stroke="#000000" d="M303.7211,-505.6536C286.4048,-544.1642 266.5688,-595.1273 257.6964,-642.8 237.5535,-751.0304 193.2033,-1048.98 257.6964,-1138.2 287.5843,-1179.547 325.1743,-1144.5558 366.6964,-1174.2 391.9872,-1192.256 414.3092,-1217.3235 432.541,-1242.0552"/>
<polygon fill="none" stroke="#000000" points="424.006,-1248.1739 449.6893,-1266.8987 441.2886,-1236.2445 424.006,-1248.1739"/>
</g>
<!-- 4&#45;&gt;2 -->
<g id="edge6" class="edge">
<title>4&#45;&gt;2</title>
<path fill="none" stroke="#000000" stroke-dasharray="5,2" d="M288.9428,-505.7835C264.0264,-543.5177 235.3606,-593.6414 220.6964,-642.8 169.1816,-815.4923 163.8004,-1023.1556 168.0673,-1164.5822"/>
<polygon fill="#000000" stroke="#000000" points="164.5713,-1164.7666 168.3907,-1174.6491 171.5677,-1164.5418 164.5713,-1164.7666"/>
</g>
<!-- 4&#45;&gt;3 -->
<g id="edge5" class="edge">
<title>4&#45;&gt;3</title>
<path fill="none" stroke="#000000" d="M355.7112,-505.7801C365.7672,-535.7737 378.5776,-573.983 392.2039,-614.6256"/>
<polygon fill="none" stroke="#000000" points="382.2521,-617.9744 401.744,-643.0806 402.1629,-611.2989 382.2521,-617.9744"/>
</g>
<!-- 5 -->
<g id="node6" class="node">
<title>5</title>
<polygon fill="#f2f2f2" stroke="#000000" points="1653.2787,-1275.5 1653.2787,-1383.5 1930.1141,-1383.5 1930.1141,-1275.5 1653.2787,-1275.5"/>
<text text-anchor="middle" x="1791.6964" y="-1366.9" font-family="Times,serif" font-size="14.00" fill="#000000">&lt;&lt;Interface&gt;&gt;</text>
<text text-anchor="middle" x="1791.6964" y="-1350.1" font-family="Times,serif" font-size="14.00" fill="#000000">IERC165</text>
<polyline fill="none" stroke="#000000" points="1653.2787,-1341.9 1930.1141,-1341.9 "/>
<text text-anchor="middle" x="1791.6964" y="-1325.3" font-family="Times,serif" font-size="14.00" fill="#000000"> </text>
<polyline fill="none" stroke="#000000" points="1653.2787,-1317.1 1930.1141,-1317.1 "/>
<text text-anchor="start" x="1661.2787" y="-1300.5" font-family="Times,serif" font-size="14.00" fill="#000000">External:</text>
<text text-anchor="start" x="1661.2787" y="-1283.7" font-family="Times,serif" font-size="14.00" fill="#000000"> &#160;&#160;&#160;&#160;supportsInterface(interfaceId: bytes4): bool</text>
</g>
<!-- 6 -->
<g id="node7" class="node">
<title>6</title>
<polygon fill="#f2f2f2" stroke="#000000" points="1261.0469,-794.5 1261.0469,-986.5 1814.3459,-986.5 1814.3459,-794.5 1261.0469,-794.5"/>
<text text-anchor="middle" x="1537.6964" y="-969.9" font-family="Times,serif" font-size="14.00" fill="#000000">&lt;&lt;Interface&gt;&gt;</text>
<text text-anchor="middle" x="1537.6964" y="-953.1" font-family="Times,serif" font-size="14.00" fill="#000000">IERC1363</text>
<polyline fill="none" stroke="#000000" points="1261.0469,-944.9 1814.3459,-944.9 "/>
<text text-anchor="middle" x="1537.6964" y="-928.3" font-family="Times,serif" font-size="14.00" fill="#000000"> </text>
<polyline fill="none" stroke="#000000" points="1261.0469,-920.1 1814.3459,-920.1 "/>
<text text-anchor="start" x="1269.0469" y="-903.5" font-family="Times,serif" font-size="14.00" fill="#000000">External:</text>
<text text-anchor="start" x="1269.0469" y="-886.7" font-family="Times,serif" font-size="14.00" fill="#000000"> &#160;&#160;&#160;&#160;transferAndCall(recipient: address, amount: uint256): bool</text>
<text text-anchor="start" x="1269.0469" y="-869.9" font-family="Times,serif" font-size="14.00" fill="#000000"> &#160;&#160;&#160;&#160;transferAndCall(recipient: address, amount: uint256, data: bytes): bool</text>
<text text-anchor="start" x="1269.0469" y="-853.1" font-family="Times,serif" font-size="14.00" fill="#000000"> &#160;&#160;&#160;&#160;transferFromAndCall(sender: address, recipient: address, amount: uint256): bool</text>
<text text-anchor="start" x="1269.0469" y="-836.3" font-family="Times,serif" font-size="14.00" fill="#000000"> &#160;&#160;&#160;&#160;transferFromAndCall(sender: address, recipient: address, amount: uint256, data: bytes): bool</text>
<text text-anchor="start" x="1269.0469" y="-819.5" font-family="Times,serif" font-size="14.00" fill="#000000"> &#160;&#160;&#160;&#160;approveAndCall(spender: address, amount: uint256): bool</text>
<text text-anchor="start" x="1269.0469" y="-802.7" font-family="Times,serif" font-size="14.00" fill="#000000"> &#160;&#160;&#160;&#160;approveAndCall(spender: address, amount: uint256, data: bytes): bool</text>
</g>
<!-- 6&#45;&gt;1 -->
<g id="edge7" class="edge">
<title>6&#45;&gt;1</title>
<path fill="none" stroke="#000000" stroke-dasharray="5,2" d="M1470.9514,-986.5691C1430.9318,-1044.1711 1379.2382,-1118.5758 1334.235,-1183.351"/>
<polygon fill="none" stroke="#000000" points="1325.526,-1177.4836 1317.032,-1208.1121 1342.7723,-1189.4656 1325.526,-1177.4836"/>
</g>
<!-- 6&#45;&gt;5 -->
<g id="edge8" class="edge">
<title>6&#45;&gt;5</title>
<path fill="none" stroke="#000000" stroke-dasharray="5,2" d="M1593.2808,-986.5691C1638.8223,-1065.2806 1702.5169,-1175.3669 1745.3429,-1249.3851"/>
<polygon fill="none" stroke="#000000" points="1736.2662,-1254.6638 1760.3787,-1275.3722 1754.443,-1244.1469 1736.2662,-1254.6638"/>
</g>
<!-- 7 -->
<g id="node8" class="node">
<title>7</title>
<polygon fill="#f2f2f2" stroke="#000000" points="2136.8975,-836.5 2136.8975,-944.5 2692.4953,-944.5 2692.4953,-836.5 2136.8975,-836.5"/>
<text text-anchor="middle" x="2414.6964" y="-927.9" font-family="Times,serif" font-size="14.00" fill="#000000">&lt;&lt;Interface&gt;&gt;</text>
<text text-anchor="middle" x="2414.6964" y="-911.1" font-family="Times,serif" font-size="14.00" fill="#000000">IERC1363Receiver</text>
<polyline fill="none" stroke="#000000" points="2136.8975,-902.9 2692.4953,-902.9 "/>
<text text-anchor="middle" x="2414.6964" y="-886.3" font-family="Times,serif" font-size="14.00" fill="#000000"> </text>
<polyline fill="none" stroke="#000000" points="2136.8975,-878.1 2692.4953,-878.1 "/>
<text text-anchor="start" x="2144.8975" y="-861.5" font-family="Times,serif" font-size="14.00" fill="#000000">External:</text>
<text text-anchor="start" x="2144.8975" y="-844.7" font-family="Times,serif" font-size="14.00" fill="#000000"> &#160;&#160;&#160;&#160;onTransferReceived(operator: address, sender: address, amount: uint256, data: bytes): bytes4</text>
</g>
<!-- 8 -->
<g id="node9" class="node">
<title>8</title>
<polygon fill="#f2f2f2" stroke="#000000" points="2710.6707,-836.5 2710.6707,-944.5 3168.7221,-944.5 3168.7221,-836.5 2710.6707,-836.5"/>
<text text-anchor="middle" x="2939.6964" y="-927.9" font-family="Times,serif" font-size="14.00" fill="#000000">&lt;&lt;Interface&gt;&gt;</text>
<text text-anchor="middle" x="2939.6964" y="-911.1" font-family="Times,serif" font-size="14.00" fill="#000000">IERC1363Spender</text>
<polyline fill="none" stroke="#000000" points="2710.6707,-902.9 3168.7221,-902.9 "/>
<text text-anchor="middle" x="2939.6964" y="-886.3" font-family="Times,serif" font-size="14.00" fill="#000000"> </text>
<polyline fill="none" stroke="#000000" points="2710.6707,-878.1 3168.7221,-878.1 "/>
<text text-anchor="start" x="2718.6707" y="-861.5" font-family="Times,serif" font-size="14.00" fill="#000000">External:</text>
<text text-anchor="start" x="2718.6707" y="-844.7" font-family="Times,serif" font-size="14.00" fill="#000000"> &#160;&#160;&#160;&#160;onApprovalReceived(sender: address, amount: uint256, data: bytes): bytes4</text>
</g>
<!-- 9 -->
<g id="node10" class="node">
<title>9</title>
<polygon fill="#f2f2f2" stroke="#000000" points="3186.6384,-744.1 3186.6384,-1036.9 3752.7544,-1036.9 3752.7544,-744.1 3186.6384,-744.1"/>
<text text-anchor="middle" x="3469.6964" y="-1020.3" font-family="Times,serif" font-size="14.00" fill="#000000">&lt;&lt;Library&gt;&gt;</text>
<text text-anchor="middle" x="3469.6964" y="-1003.5" font-family="Times,serif" font-size="14.00" fill="#000000">Address</text>
<polyline fill="none" stroke="#000000" points="3186.6384,-995.3 3752.7544,-995.3 "/>
<text text-anchor="middle" x="3469.6964" y="-978.7" font-family="Times,serif" font-size="14.00" fill="#000000"> </text>
<polyline fill="none" stroke="#000000" points="3186.6384,-970.5 3752.7544,-970.5 "/>
<text text-anchor="start" x="3194.6384" y="-953.9" font-family="Times,serif" font-size="14.00" fill="#000000">Private:</text>
<text text-anchor="start" x="3194.6384" y="-937.1" font-family="Times,serif" font-size="14.00" fill="#000000"> &#160;&#160;&#160;_verifyCallResult(success: bool, returndata: bytes, errorMessage: string): bytes</text>
<text text-anchor="start" x="3194.6384" y="-920.3" font-family="Times,serif" font-size="14.00" fill="#000000">Internal:</text>
<text text-anchor="start" x="3194.6384" y="-903.5" font-family="Times,serif" font-size="14.00" fill="#000000"> &#160;&#160;&#160;isContract(account: address): bool</text>
<text text-anchor="start" x="3194.6384" y="-886.7" font-family="Times,serif" font-size="14.00" fill="#000000"> &#160;&#160;&#160;sendValue(recipient: address, amount: uint256)</text>
<text text-anchor="start" x="3194.6384" y="-869.9" font-family="Times,serif" font-size="14.00" fill="#000000"> &#160;&#160;&#160;functionCall(target: address, data: bytes): bytes</text>
<text text-anchor="start" x="3194.6384" y="-853.1" font-family="Times,serif" font-size="14.00" fill="#000000"> &#160;&#160;&#160;functionCall(target: address, data: bytes, errorMessage: string): bytes</text>
<text text-anchor="start" x="3194.6384" y="-836.3" font-family="Times,serif" font-size="14.00" fill="#000000"> &#160;&#160;&#160;functionCallWithValue(target: address, data: bytes, value: uint256): bytes</text>
<text text-anchor="start" x="3194.6384" y="-819.5" font-family="Times,serif" font-size="14.00" fill="#000000"> &#160;&#160;&#160;functionCallWithValue(target: address, data: bytes, value: uint256, errorMessage: string): bytes</text>
<text text-anchor="start" x="3194.6384" y="-802.7" font-family="Times,serif" font-size="14.00" fill="#000000"> &#160;&#160;&#160;functionStaticCall(target: address, data: bytes): bytes</text>
<text text-anchor="start" x="3194.6384" y="-785.9" font-family="Times,serif" font-size="14.00" fill="#000000"> &#160;&#160;&#160;functionStaticCall(target: address, data: bytes, errorMessage: string): bytes</text>
<text text-anchor="start" x="3194.6384" y="-769.1" font-family="Times,serif" font-size="14.00" fill="#000000"> &#160;&#160;&#160;functionDelegateCall(target: address, data: bytes): bytes</text>
<text text-anchor="start" x="3194.6384" y="-752.3" font-family="Times,serif" font-size="14.00" fill="#000000"> &#160;&#160;&#160;functionDelegateCall(target: address, data: bytes, errorMessage: string): bytes</text>
</g>
<!-- 10 -->
<g id="node11" class="node">
<title>10</title>
<polygon fill="#f2f2f2" stroke="#000000" points="1224.5837,-.5 1224.5837,-242.9 1716.8091,-242.9 1716.8091,-.5 1224.5837,-.5"/>
<text text-anchor="middle" x="1470.6964" y="-226.3" font-family="Times,serif" font-size="14.00" fill="#000000">&lt;&lt;Library&gt;&gt;</text>
<text text-anchor="middle" x="1470.6964" y="-209.5" font-family="Times,serif" font-size="14.00" fill="#000000">ERC165Checker</text>
<polyline fill="none" stroke="#000000" points="1224.5837,-201.3 1716.8091,-201.3 "/>
<text text-anchor="start" x="1232.5837" y="-184.7" font-family="Times,serif" font-size="14.00" fill="#000000">Private:</text>
<text text-anchor="start" x="1232.5837" y="-167.9" font-family="Times,serif" font-size="14.00" fill="#000000"> &#160;&#160;_INTERFACE_ID_INVALID: bytes4</text>
<text text-anchor="start" x="1232.5837" y="-151.1" font-family="Times,serif" font-size="14.00" fill="#000000"> &#160;&#160;_INTERFACE_ID_ERC165: bytes4</text>
<polyline fill="none" stroke="#000000" points="1224.5837,-142.9 1716.8091,-142.9 "/>
<text text-anchor="start" x="1232.5837" y="-126.3" font-family="Times,serif" font-size="14.00" fill="#000000">Private:</text>
<text text-anchor="start" x="1232.5837" y="-109.5" font-family="Times,serif" font-size="14.00" fill="#000000"> &#160;&#160;&#160;_supportsERC165Interface(account: address, interfaceId: bytes4): bool</text>
<text text-anchor="start" x="1232.5837" y="-92.7" font-family="Times,serif" font-size="14.00" fill="#000000"> &#160;&#160;&#160;_callERC165SupportsInterface(account: address, interfaceId: bytes4): (bool, bool)</text>
<text text-anchor="start" x="1232.5837" y="-75.9" font-family="Times,serif" font-size="14.00" fill="#000000">Internal:</text>
<text text-anchor="start" x="1232.5837" y="-59.1" font-family="Times,serif" font-size="14.00" fill="#000000"> &#160;&#160;&#160;supportsERC165(account: address): bool</text>
<text text-anchor="start" x="1232.5837" y="-42.3" font-family="Times,serif" font-size="14.00" fill="#000000"> &#160;&#160;&#160;supportsInterface(account: address, interfaceId: bytes4): bool</text>
<text text-anchor="start" x="1232.5837" y="-25.5" font-family="Times,serif" font-size="14.00" fill="#000000"> &#160;&#160;&#160;getSupportedInterfaces(account: address, interfaceIds: bytes4[]): bool[]</text>
<text text-anchor="start" x="1232.5837" y="-8.7" font-family="Times,serif" font-size="14.00" fill="#000000"> &#160;&#160;&#160;supportsAllInterfaces(account: address, interfaceIds: bytes4[]): bool</text>
</g>
<!-- 11 -->
<g id="node12" class="node">
<title>11</title>
<polygon fill="#f2f2f2" stroke="#000000" points="1832.2849,-794.5 1832.2849,-986.5 2119.1079,-986.5 2119.1079,-794.5 1832.2849,-794.5"/>
<text text-anchor="middle" x="1975.6964" y="-969.9" font-family="Times,serif" font-size="14.00" fill="#000000">&lt;&lt;Abstract&gt;&gt;</text>
<text text-anchor="middle" x="1975.6964" y="-953.1" font-family="Times,serif" font-size="14.00" fill="#000000">ERC165</text>
<polyline fill="none" stroke="#000000" points="1832.2849,-944.9 2119.1079,-944.9 "/>
<text text-anchor="start" x="1840.2849" y="-928.3" font-family="Times,serif" font-size="14.00" fill="#000000">Private:</text>
<text text-anchor="start" x="1840.2849" y="-911.5" font-family="Times,serif" font-size="14.00" fill="#000000"> &#160;&#160;_INTERFACE_ID_ERC165: bytes4</text>
<text text-anchor="start" x="1840.2849" y="-894.7" font-family="Times,serif" font-size="14.00" fill="#000000"> &#160;&#160;_supportedInterfaces: mapping(bytes4=&gt;bool)</text>
<polyline fill="none" stroke="#000000" points="1832.2849,-886.5 2119.1079,-886.5 "/>
<text text-anchor="start" x="1840.2849" y="-869.9" font-family="Times,serif" font-size="14.00" fill="#000000">Internal:</text>
<text text-anchor="start" x="1840.2849" y="-853.1" font-family="Times,serif" font-size="14.00" fill="#000000"> &#160;&#160;&#160;_registerInterface(interfaceId: bytes4)</text>
<text text-anchor="start" x="1840.2849" y="-836.3" font-family="Times,serif" font-size="14.00" fill="#000000">Public:</text>
<text text-anchor="start" x="1840.2849" y="-819.5" font-family="Times,serif" font-size="14.00" fill="#000000"> &#160;&#160;&#160;constructor()</text>
<text text-anchor="start" x="1840.2849" y="-802.7" font-family="Times,serif" font-size="14.00" fill="#000000"> &#160;&#160;&#160;supportsInterface(interfaceId: bytes4): bool</text>
</g>
<!-- 11&#45;&gt;5 -->
<g id="edge9" class="edge">
<title>11&#45;&gt;5</title>
<path fill="none" stroke="#000000" stroke-dasharray="5,2" d="M1935.4306,-986.5691C1902.7299,-1064.5886 1857.1091,-1173.4338 1826.097,-1247.4246"/>
<polygon fill="none" stroke="#000000" points="1816.2961,-1243.6453 1814.3832,-1275.3722 1835.6637,-1251.763 1816.2961,-1243.6453"/>
</g>
<!-- 12 -->
<g id="node13" class="node">
<title>12</title>
<polygon fill="#f2f2f2" stroke="#000000" points="1255.8109,-279.9 1255.8109,-606.3 1819.5819,-606.3 1819.5819,-279.9 1255.8109,-279.9"/>
<text text-anchor="middle" x="1537.6964" y="-589.7" font-family="Times,serif" font-size="14.00" fill="#000000">ERC1363</text>
<polyline fill="none" stroke="#000000" points="1255.8109,-581.5 1819.5819,-581.5 "/>
<text text-anchor="start" x="1263.8109" y="-564.9" font-family="Times,serif" font-size="14.00" fill="#000000">Private:</text>
<text text-anchor="start" x="1263.8109" y="-548.1" font-family="Times,serif" font-size="14.00" fill="#000000"> &#160;&#160;_ERC1363_RECEIVED: bytes4</text>
<text text-anchor="start" x="1263.8109" y="-531.3" font-family="Times,serif" font-size="14.00" fill="#000000"> &#160;&#160;_ERC1363_APPROVED: bytes4</text>
<text text-anchor="start" x="1263.8109" y="-514.5" font-family="Times,serif" font-size="14.00" fill="#000000">Internal:</text>
<text text-anchor="start" x="1263.8109" y="-497.7" font-family="Times,serif" font-size="14.00" fill="#000000"> &#160;&#160;_INTERFACE_ID_ERC1363_TRANSFER: bytes4</text>
<text text-anchor="start" x="1263.8109" y="-480.9" font-family="Times,serif" font-size="14.00" fill="#000000"> &#160;&#160;_INTERFACE_ID_ERC1363_APPROVE: bytes4</text>
<polyline fill="none" stroke="#000000" points="1255.8109,-472.7 1819.5819,-472.7 "/>
<text text-anchor="start" x="1263.8109" y="-456.1" font-family="Times,serif" font-size="14.00" fill="#000000">Internal:</text>
<text text-anchor="start" x="1263.8109" y="-439.3" font-family="Times,serif" font-size="14.00" fill="#000000"> &#160;&#160;&#160;_checkAndCallTransfer(sender: address, recipient: address, amount: uint256, data: bytes): bool</text>
<text text-anchor="start" x="1263.8109" y="-422.5" font-family="Times,serif" font-size="14.00" fill="#000000"> &#160;&#160;&#160;_checkAndCallApprove(spender: address, amount: uint256, data: bytes): bool</text>
<text text-anchor="start" x="1263.8109" y="-405.7" font-family="Times,serif" font-size="14.00" fill="#000000">Public:</text>
<text text-anchor="start" x="1263.8109" y="-388.9" font-family="Times,serif" font-size="14.00" fill="#000000"> &#160;&#160;&#160;constructor(name: string, symbol: string)</text>
<text text-anchor="start" x="1263.8109" y="-372.1" font-family="Times,serif" font-size="14.00" fill="#000000"> &#160;&#160;&#160;transferAndCall(recipient: address, amount: uint256): bool</text>
<text text-anchor="start" x="1263.8109" y="-355.3" font-family="Times,serif" font-size="14.00" fill="#000000"> &#160;&#160;&#160;transferAndCall(recipient: address, amount: uint256, data: bytes): bool</text>
<text text-anchor="start" x="1263.8109" y="-338.5" font-family="Times,serif" font-size="14.00" fill="#000000"> &#160;&#160;&#160;transferFromAndCall(sender: address, recipient: address, amount: uint256): bool</text>
<text text-anchor="start" x="1263.8109" y="-321.7" font-family="Times,serif" font-size="14.00" fill="#000000"> &#160;&#160;&#160;transferFromAndCall(sender: address, recipient: address, amount: uint256, data: bytes): bool</text>
<text text-anchor="start" x="1263.8109" y="-304.9" font-family="Times,serif" font-size="14.00" fill="#000000"> &#160;&#160;&#160;approveAndCall(spender: address, amount: uint256): bool</text>
<text text-anchor="start" x="1263.8109" y="-288.1" font-family="Times,serif" font-size="14.00" fill="#000000"> &#160;&#160;&#160;approveAndCall(spender: address, amount: uint256, data: bytes): bool</text>
</g>
<!-- 12&#45;&gt;3 -->
<g id="edge10" class="edge">
<title>12&#45;&gt;3</title>
<path fill="none" stroke="#000000" d="M1255.792,-578.1393C1225.1928,-589.2723 1194.1154,-599.1613 1163.6964,-606.8 1074.0803,-629.304 844.8806,-603.6312 730.4082,-637.0019"/>
<polygon fill="none" stroke="#000000" points="726.6927,-627.1812 702.3304,-647.5952 734.1057,-646.8293 726.6927,-627.1812"/>
</g>
<!-- 12&#45;&gt;6 -->
<g id="edge11" class="edge">
<title>12&#45;&gt;6</title>
<path fill="none" stroke="#000000" stroke-dasharray="5,2" d="M1537.6964,-606.5208C1537.6964,-658.5736 1537.6964,-715.3319 1537.6964,-764.3284"/>
<polygon fill="none" stroke="#000000" points="1527.1965,-764.4968 1537.6964,-794.4968 1548.1965,-764.4968 1527.1965,-764.4968"/>
</g>
<!-- 12&#45;&gt;7 -->
<g id="edge14" class="edge">
<title>12&#45;&gt;7</title>
<path fill="none" stroke="#000000" stroke-dasharray="5,2" d="M1819.6161,-514.2391C1920.4768,-545.8802 2032.6348,-588.4722 2127.6964,-642.8 2216.4286,-693.5105 2303.1089,-773.8349 2357.581,-829.1912"/>
<polygon fill="#000000" stroke="#000000" points="2355.2263,-831.7893 2364.7206,-836.4914 2360.2309,-826.8949 2355.2263,-831.7893"/>
</g>
<!-- 12&#45;&gt;8 -->
<g id="edge15" class="edge">
<title>12&#45;&gt;8</title>
<path fill="none" stroke="#000000" stroke-dasharray="5,2" d="M1819.7333,-471.0409C2113.9058,-503.7677 2552.5978,-563.7244 2701.6964,-642.8 2784.5534,-686.7439 2855.4274,-770.1756 2897.772,-827.995"/>
<polygon fill="#000000" stroke="#000000" points="2895.11,-830.2864 2903.8106,-836.3321 2900.7792,-826.1802 2895.11,-830.2864"/>
</g>
<!-- 12&#45;&gt;9 -->
<g id="edge13" class="edge">
<title>12&#45;&gt;9</title>
<path fill="none" stroke="#000000" stroke-dasharray="5,2" d="M1819.6093,-457.8946C2222.505,-482.3328 2940.5323,-539.0619 3177.6964,-642.8 3229.694,-665.5443 3279.4854,-700.667 3322.759,-737.3823"/>
<polygon fill="#000000" stroke="#000000" points="3320.6143,-740.1538 3330.4823,-744.0105 3325.1731,-734.8418 3320.6143,-740.1538"/>
</g>
<!-- 12&#45;&gt;11 -->
<g id="edge12" class="edge">
<title>12&#45;&gt;11</title>
<path fill="none" stroke="#000000" d="M1786.1551,-606.4805C1799.3352,-618.2165 1811.9623,-630.3504 1823.6964,-642.8 1858.5054,-679.7317 1889.4266,-725.8819 1914.1412,-768.3048"/>
<polygon fill="none" stroke="#000000" points="1905.0127,-773.4936 1928.8953,-794.4668 1923.3045,-763.1779 1905.0127,-773.4936"/>
</g>
<!-- 13 -->
<g id="node14" class="node">
<title>13</title>
<polygon fill="#f2f2f2" stroke="#000000" points="720.2594,-786.1 720.2594,-994.9 1205.1334,-994.9 1205.1334,-786.1 720.2594,-786.1"/>
<text text-anchor="middle" x="962.6964" y="-978.3" font-family="Times,serif" font-size="14.00" fill="#000000">&lt;&lt;Abstract&gt;&gt;</text>
<text text-anchor="middle" x="962.6964" y="-961.5" font-family="Times,serif" font-size="14.00" fill="#000000">Ownable</text>
<polyline fill="none" stroke="#000000" points="720.2594,-953.3 1205.1334,-953.3 "/>
<text text-anchor="start" x="728.2594" y="-936.7" font-family="Times,serif" font-size="14.00" fill="#000000">Private:</text>
<text text-anchor="start" x="728.2594" y="-919.9" font-family="Times,serif" font-size="14.00" fill="#000000"> &#160;&#160;_owner: address</text>
<polyline fill="none" stroke="#000000" points="720.2594,-911.7 1205.1334,-911.7 "/>
<text text-anchor="start" x="728.2594" y="-895.1" font-family="Times,serif" font-size="14.00" fill="#000000">Public:</text>
<text text-anchor="start" x="728.2594" y="-878.3" font-family="Times,serif" font-size="14.00" fill="#000000"> &#160;&#160;&#160;&lt;&lt;event&gt;&gt; OwnershipTransferred(previousOwner: address, newOwner: address)</text>
<text text-anchor="start" x="728.2594" y="-861.5" font-family="Times,serif" font-size="14.00" fill="#000000"> &#160;&#160;&#160;&lt;&lt;modifier&gt;&gt; onlyOwner()</text>
<text text-anchor="start" x="728.2594" y="-844.7" font-family="Times,serif" font-size="14.00" fill="#000000"> &#160;&#160;&#160;constructor()</text>
<text text-anchor="start" x="728.2594" y="-827.9" font-family="Times,serif" font-size="14.00" fill="#000000"> &#160;&#160;&#160;owner(): address</text>
<text text-anchor="start" x="728.2594" y="-811.1" font-family="Times,serif" font-size="14.00" fill="#000000"> &#160;&#160;&#160;renounceOwnership()</text>
<text text-anchor="start" x="728.2594" y="-794.3" font-family="Times,serif" font-size="14.00" fill="#000000"> &#160;&#160;&#160;transferOwnership(newOwner: address)</text>
</g>
<!-- 13&#45;&gt;0 -->
<g id="edge16" class="edge">
<title>13&#45;&gt;0</title>
<path fill="none" stroke="#000000" d="M860.3587,-995.1033C815.5168,-1039.9875 761.7894,-1092.5046 711.6964,-1138.2 671.2249,-1175.1185 625.2279,-1214.3585 585.2707,-1247.6278"/>
<polygon fill="none" stroke="#000000" points="578.3129,-1239.7567 561.9049,-1266.9785 591.7075,-1255.9304 578.3129,-1239.7567"/>
</g>
<!-- 14 -->
<g id="node15" class="node">
<title>14</title>
<polygon fill="#f2f2f2" stroke="#000000" points="771.1851,-397.5 771.1851,-488.7 1154.2077,-488.7 1154.2077,-397.5 771.1851,-397.5"/>
<text text-anchor="middle" x="962.6964" y="-472.1" font-family="Times,serif" font-size="14.00" fill="#000000">TokenRecover</text>
<polyline fill="none" stroke="#000000" points="771.1851,-463.9 1154.2077,-463.9 "/>
<text text-anchor="middle" x="962.6964" y="-447.3" font-family="Times,serif" font-size="14.00" fill="#000000"> </text>
<polyline fill="none" stroke="#000000" points="771.1851,-439.1 1154.2077,-439.1 "/>
<text text-anchor="start" x="779.1851" y="-422.5" font-family="Times,serif" font-size="14.00" fill="#000000">Public:</text>
<text text-anchor="start" x="779.1851" y="-405.7" font-family="Times,serif" font-size="14.00" fill="#000000"> &#160;&#160;&#160;recoverERC20(tokenAddress: address, tokenAmount: uint256)</text>
</g>
<!-- 14&#45;&gt;1 -->
<g id="edge18" class="edge">
<title>14&#45;&gt;1</title>
<path fill="none" stroke="#000000" stroke-dasharray="5,2" d="M1053.8264,-488.7528C1110.8814,-522.7296 1179.7959,-574.9227 1213.6964,-642.8 1260.6215,-736.7559 1251.9742,-1026.4404 1242.0083,-1198.0805"/>
<polygon fill="#000000" stroke="#000000" points="1238.5067,-1198.006 1241.4116,-1208.1948 1245.4946,-1198.4183 1238.5067,-1198.006"/>
</g>
<!-- 14&#45;&gt;13 -->
<g id="edge17" class="edge">
<title>14&#45;&gt;13</title>
<path fill="none" stroke="#000000" d="M962.6964,-488.8771C962.6964,-551.1375 962.6964,-665.1441 962.6964,-755.8269"/>
<polygon fill="none" stroke="#000000" points="952.1965,-755.8842 962.6964,-785.8843 973.1965,-755.8843 952.1965,-755.8842"/>
</g>
<!-- 15 -->
<g id="node16" class="node">
<title>15</title>
<polygon fill="#f2f2f2" stroke="#000000" points="496.1641,-330.3 496.1641,-555.9 753.2287,-555.9 753.2287,-330.3 496.1641,-330.3"/>
<text text-anchor="middle" x="624.6964" y="-539.3" font-family="Times,serif" font-size="14.00" fill="#000000">&lt;&lt;Abstract&gt;&gt;</text>
<text text-anchor="middle" x="624.6964" y="-522.5" font-family="Times,serif" font-size="14.00" fill="#000000">ERC20Mintable</text>
<polyline fill="none" stroke="#000000" points="496.1641,-514.3 753.2287,-514.3 "/>
<text text-anchor="start" x="504.1641" y="-497.7" font-family="Times,serif" font-size="14.00" fill="#000000">Private:</text>
<text text-anchor="start" x="504.1641" y="-480.9" font-family="Times,serif" font-size="14.00" fill="#000000"> &#160;&#160;_mintingFinished: bool</text>
<polyline fill="none" stroke="#000000" points="496.1641,-472.7 753.2287,-472.7 "/>
<text text-anchor="start" x="504.1641" y="-456.1" font-family="Times,serif" font-size="14.00" fill="#000000">Internal:</text>
<text text-anchor="start" x="504.1641" y="-439.3" font-family="Times,serif" font-size="14.00" fill="#000000"> &#160;&#160;&#160;_finishMinting()</text>
<text text-anchor="start" x="504.1641" y="-422.5" font-family="Times,serif" font-size="14.00" fill="#000000">Public:</text>
<text text-anchor="start" x="504.1641" y="-405.7" font-family="Times,serif" font-size="14.00" fill="#000000"> &#160;&#160;&#160;&lt;&lt;event&gt;&gt; MintFinished()</text>
<text text-anchor="start" x="504.1641" y="-388.9" font-family="Times,serif" font-size="14.00" fill="#000000"> &#160;&#160;&#160;&lt;&lt;modifier&gt;&gt; canMint()</text>
<text text-anchor="start" x="504.1641" y="-372.1" font-family="Times,serif" font-size="14.00" fill="#000000"> &#160;&#160;&#160;mintingFinished(): bool</text>
<text text-anchor="start" x="504.1641" y="-355.3" font-family="Times,serif" font-size="14.00" fill="#000000"> &#160;&#160;&#160;mint(account: address, amount: uint256)</text>
<text text-anchor="start" x="504.1641" y="-338.5" font-family="Times,serif" font-size="14.00" fill="#000000"> &#160;&#160;&#160;finishMinting()</text>
</g>
<!-- 15&#45;&gt;3 -->
<g id="edge19" class="edge">
<title>15&#45;&gt;3</title>
<path fill="none" stroke="#000000" d="M589.3685,-555.9979C583.6425,-574.2964 577.5025,-593.9182 571.1719,-614.1491"/>
<polygon fill="none" stroke="#000000" points="561.0565,-611.3158 562.1181,-643.0825 581.0982,-617.5872 561.0565,-611.3158"/>
</g>
<!-- 16 -->
<g id="node17" class="node">
<title>16</title>
<polygon fill="#f2f2f2" stroke="#000000" points="719.0694,-50.9 719.0694,-192.5 1206.3234,-192.5 1206.3234,-50.9 719.0694,-50.9"/>
<text text-anchor="middle" x="962.6964" y="-175.9" font-family="Times,serif" font-size="14.00" fill="#000000">AmazingERC20</text>
<polyline fill="none" stroke="#000000" points="719.0694,-167.7 1206.3234,-167.7 "/>
<text text-anchor="middle" x="962.6964" y="-151.1" font-family="Times,serif" font-size="14.00" fill="#000000"> </text>
<polyline fill="none" stroke="#000000" points="719.0694,-142.9 1206.3234,-142.9 "/>
<text text-anchor="start" x="727.0694" y="-126.3" font-family="Times,serif" font-size="14.00" fill="#000000">Internal:</text>
<text text-anchor="start" x="727.0694" y="-109.5" font-family="Times,serif" font-size="14.00" fill="#000000"> &#160;&#160;&#160;_mint(account: address, amount: uint256)</text>
<text text-anchor="start" x="727.0694" y="-92.7" font-family="Times,serif" font-size="14.00" fill="#000000"> &#160;&#160;&#160;_finishMinting()</text>
<text text-anchor="start" x="727.0694" y="-75.9" font-family="Times,serif" font-size="14.00" fill="#000000">Public:</text>
<text text-anchor="start" x="727.0694" y="-59.1" font-family="Times,serif" font-size="14.00" fill="#000000"> &#160;&#160;&#160;constructor(name: string, symbol: string, decimals: uint8, initialBalance: uint256)</text>
</g>
<!-- 16&#45;&gt;4 -->
<g id="edge21" class="edge">
<title>16&#45;&gt;4</title>
<path fill="none" stroke="#000000" d="M718.781,-176.8387C640.8583,-201.0073 556.7293,-234.3942 486.6964,-279.4 454.3251,-300.203 424.2139,-329.4705 399.4735,-357.5164"/>
<polygon fill="none" stroke="#000000" points="391.3402,-350.8736 380.0231,-380.575 407.3921,-364.4137 391.3402,-350.8736"/>
</g>
<!-- 16&#45;&gt;12 -->
<g id="edge22" class="edge">
<title>16&#45;&gt;12</title>
<path fill="none" stroke="#000000" d="M1089.5944,-192.6305C1131.4615,-216.0324 1180.0189,-243.1738 1229.3988,-270.7751"/>
<polygon fill="none" stroke="#000000" points="1224.3561,-279.9853 1255.666,-285.4573 1234.6023,-261.6545 1224.3561,-279.9853"/>
</g>
<!-- 16&#45;&gt;14 -->
<g id="edge23" class="edge">
<title>16&#45;&gt;14</title>
<path fill="none" stroke="#000000" d="M962.6964,-192.6305C962.6964,-244.2212 962.6964,-313.9864 962.6964,-366.7852"/>
<polygon fill="none" stroke="#000000" points="952.1965,-367.1533 962.6964,-397.1533 973.1965,-367.1533 952.1965,-367.1533"/>
</g>
<!-- 16&#45;&gt;15 -->
<g id="edge20" class="edge">
<title>16&#45;&gt;15</title>
<path fill="none" stroke="#000000" d="M863.9537,-192.6076C830.249,-218.4915 793.1526,-248.9216 761.6964,-279.4 752.4371,-288.3715 743.1644,-297.9277 734.0528,-307.7441"/>
<polygon fill="none" stroke="#000000" points="726.0737,-300.9138 713.8074,-330.236 741.682,-314.9631 726.0737,-300.9138"/>
</g>
</g>
</svg>
